<?xml version="1.0" encoding="UTF-8" standalone="no"?>
<!-- Generator: Adobe Illustrator 16.0.0, SVG Export Plug-In . SVG Version: 6.00 Build 0)  -->

<svg
   xmlns:dc="http://purl.org/dc/elements/1.1/"
   xmlns:cc="http://creativecommons.org/ns#"
   xmlns:rdf="http://www.w3.org/1999/02/22-rdf-syntax-ns#"
   xmlns:svg="http://www.w3.org/2000/svg"
   xmlns="http://www.w3.org/2000/svg"
   xmlns:sodipodi="http://sodipodi.sourceforge.net/DTD/sodipodi-0.dtd"
   xmlns:inkscape="http://www.inkscape.org/namespaces/inkscape"
   version="1.1"
   id="Layer_1"
   x="0px"
   y="0px"
   width="67.409px"
   height="33.206px"
   viewBox="0 0 67.409 33.206"
   enable-background="new 0 0 67.409 33.206"
   xml:space="preserve"
   sodipodi:docname="start-select-marina.svg"
   inkscape:version="0.92.3 (2405546, 2018-03-11)"><metadata
   id="metadata57"><rdf:RDF><cc:Work
       rdf:about=""><dc:format>image/svg+xml</dc:format><dc:type
         rdf:resource="http://purl.org/dc/dcmitype/StillImage" /><dc:title></dc:title></cc:Work></rdf:RDF></metadata><defs
   id="defs55">
	
	

	
	
</defs><sodipodi:namedview
   pagecolor="#ffffff"
   bordercolor="#666666"
   borderopacity="1"
   objecttolerance="10"
   gridtolerance="10"
   guidetolerance="10"
   inkscape:pageopacity="0"
   inkscape:pageshadow="2"
   inkscape:window-width="2560"
   inkscape:window-height="1387"
   id="namedview53"
   showgrid="false"
   inkscape:zoom="16.85235"
   inkscape:cx="21.77251"
   inkscape:cy="20.004192"
   inkscape:window-x="-8"
   inkscape:window-y="-8"
   inkscape:window-maximized="1"
   inkscape:current-layer="Layer_1" />
<path
   style="fill:#232323;stroke:#ffffff;stroke-miterlimit:10;fill-opacity:1"
   inkscape:connector-curvature="0"
   id="path2"
   d="m 66.909,16.603 c 0,8.903 -7.229,16.103 -16.102,16.103 -8.901,0 -16.102,-7.2 -16.102,-16.103 0,-8.896 7.2,-16.103 16.102,-16.103 8.874,0 16.102,7.207 16.102,16.103 z"
   stroke-miterlimit="10" /><g
   id="g10">
		<rect
   style="fill:#929493"
   id="rect4"
   height="1.552"
   width="14.361"
   y="11.978"
   x="43.612" />
		<rect
   style="fill:#929493"
   id="rect6"
   height="1.552"
   width="14.361"
   y="15.896"
   x="43.612" />
		<rect
   style="fill:#929493"
   id="rect8"
   height="1.5319999"
   width="14.361"
   y="19.705999"
   x="43.612" />
	</g>
<path
   style="fill:#232323;stroke:#ffffff;stroke-miterlimit:10;fill-opacity:1"
   inkscape:connector-curvature="0"
   id="path13"
   d="m 32.706,16.603 c 0,8.903 -7.201,16.103 -16.103,16.103 C 7.731,32.706 0.5,25.506 0.5,16.603 0.5,7.707 7.731,0.5 16.603,0.5 c 8.902,0 16.103,7.207 16.103,16.103 z"
   stroke-miterlimit="10" /><g
   id="g19">
		<polygon
   style="fill:#929493"
   id="polygon15"
   points="11.056,12.718 16.528,12.718 16.528,14.039 18.328,14.039 18.328,10.979 9.437,10.979 9.437,18.369 14.087,18.369 14.087,16.502 11.056,16.502 " />
		<path
   style="fill:#929493"
   inkscape:connector-curvature="0"
   id="path17"
   d="m 14.837,14.663 v 7.584 h 8.96 v -7.584 z m 7.161,5.784 h -5.47 v -3.945 h 5.47 z" />
	</g>
<g
   id="g22">
</g>
<g
   id="g24">
</g>
<g
   id="g26">
</g>
<g
   id="g28">
</g>
<g
   id="g30">
</g>
<g
   id="g32">
</g>
<g
   id="g34">
</g>
<g
   id="g36">
</g>
<g
   id="g38">
</g>
<g
   id="g40">
</g>
<g
   id="g42">
</g>
<g
   id="g44">
</g>
<g
   id="g46">
</g>
<g
   id="g48">
</g>
<g
   id="g50">
</g>
</svg>